<?xml version="1.0" encoding="UTF-8" standalone="no"?>
<svg
   enable-background="new 0 0 550 550"
   id="Layer_1"
   version="1.1"
   viewBox="0 0 20 20"
   xml:space="preserve"
   sodipodi:docname="facebook_icon-icons.com_59205.svg"
   width="20"
   height="20"
   inkscape:version="1.3 (0e150ed6c4, 2023-07-21)"
   xmlns:inkscape="http://www.inkscape.org/namespaces/inkscape"
   xmlns:sodipodi="http://sodipodi.sourceforge.net/DTD/sodipodi-0.dtd"
   xmlns="http://www.w3.org/2000/svg"
   xmlns:svg="http://www.w3.org/2000/svg"><defs
     id="defs2" /><sodipodi:namedview
     id="namedview2"
     pagecolor="#505050"
     bordercolor="#eeeeee"
     borderopacity="1"
     inkscape:showpageshadow="0"
     inkscape:pageopacity="0"
     inkscape:pagecheckerboard="0"
     inkscape:deskcolor="#505050"
     inkscape:zoom="1.4436364"
     inkscape:cx="255.95088"
     inkscape:cy="256.29723"
     inkscape:window-width="1920"
     inkscape:window-height="1003"
     inkscape:window-x="0"
     inkscape:window-y="0"
     inkscape:window-maximized="1"
     inkscape:current-layer="Layer_1" /><g
     id="g2"
     transform="matrix(0.0390625,0,0,0.0390625,-0.7421875,-0.7421875)"><g
       id="g1"><circle
         cx="275"
         cy="275"
         fill="#3f65a6"
         r="256"
         id="circle1" /><path
         d="m 236.1,190.8 c 0,7.4 0,40.4 0,40.4 h -29.6 v 49.4 h 29.6 V 416 h 60.8 V 280.5 h 40.8 c 0,0 3.8,-23.7 5.7,-49.6 -5.3,0 -46.2,0 -46.2,0 0,0 0,-28.7 0,-33.8 0,-5 6.6,-11.8 13.2,-11.8 6.5,0 20.3,0 33.1,0 0,-6.7 0,-30 0,-51.4 -17.1,0 -36.5,0 -45,0 -63.9,0.1 -62.4,49.5 -62.4,56.9 z"
         fill="#ffffff"
         id="Facebook_4_" /></g></g></svg>
