<?xml version="1.0" encoding="UTF-8" standalone="no"?>
<svg
   version="1.1"
   viewBox="0 0 20 20"
   xml:space="preserve"
   id="svg1"
   sodipodi:docname="in_linked_linkedin_media_social_icon_124259.svg"
   width="20"
   height="20"
   inkscape:version="1.3 (0e150ed6c4, 2023-07-21)"
   xmlns:inkscape="http://www.inkscape.org/namespaces/inkscape"
   xmlns:sodipodi="http://sodipodi.sourceforge.net/DTD/sodipodi-0.dtd"
   xmlns="http://www.w3.org/2000/svg"
   xmlns:svg="http://www.w3.org/2000/svg"><defs
     id="defs1" /><sodipodi:namedview
     id="namedview1"
     pagecolor="#505050"
     bordercolor="#eeeeee"
     borderopacity="1"
     inkscape:showpageshadow="0"
     inkscape:pageopacity="0"
     inkscape:pagecheckerboard="0"
     inkscape:deskcolor="#505050"
     inkscape:zoom="17.545087"
     inkscape:cx="20.14809"
     inkscape:cy="15.046947"
     inkscape:window-width="1920"
     inkscape:window-height="1003"
     inkscape:window-x="0"
     inkscape:window-y="0"
     inkscape:window-maximized="1"
     inkscape:current-layer="svg1" /><style
     type="text/css"
     id="style1">&#10;	.st0{fill:#4267B2;}&#10;	.st1{fill:url(#SVGID_1_);}&#10;	.st2{fill:#FFFFFF;}&#10;	.st3{fill:#C2191E;}&#10;	.st4{fill:#1DA1F3;}&#10;	.st5{fill:#FEFE00;}&#10;	.st6{fill:#25D366;stroke:#FFFFFF;stroke-width:5;stroke-miterlimit:10;}&#10;	.st7{fill:#CB2027;}&#10;	.st8{fill:#0077B5;}&#10;	.st9{fill:url(#SVGID_2_);}&#10;	.st10{fill:url(#SVGID_3_);}&#10;	.st11{fill:#FF004F;}&#10;	.st12{fill:#00F7EF;}&#10;	.st13{fill:#5181B8;}&#10;	.st14{fill:#395976;}&#10;	.st15{fill:#F58220;}&#10;	.st16{fill:#E6162D;}&#10;	.st17{fill:#FF9933;}&#10;</style><g
     id="guidlines"
     transform="translate(-2,-2)" /><g
     id="FB"
     transform="translate(-2,-2)" /><g
     id="ig"
     transform="translate(-2,-2)" /><g
     id="yt"
     transform="translate(-2,-2)" /><g
     id="twitter"
     transform="translate(-2,-2)" /><g
     id="snapchat"
     transform="translate(-2,-2)" /><g
     id="WA"
     transform="translate(-2,-2)" /><g
     id="Pinterrest"
     transform="translate(-2,-2)" /><g
     id="Layer_9"
     transform="translate(-2,-2)"
     style="display:inline;fill:#0077b5;fill-opacity:1"><path
       class="st8"
       d="M 2,3.3333333 V 20.666667 C 2,21.4 2.6,22 3.3333333,22 H 20.666667 C 21.4,22 22,21.4 22,20.666667 V 3.3333333 C 22,2.6 21.4,2 20.666667,2 H 3.3333333 C 2.6,2 2,2.6 2,3.3333333 Z M 7.7,18.666667 H 5.3333333 V 9.4666667 H 7.7 Z M 6.5333333,7.6333333 c -0.6666666,0 -1.2,-0.5 -1.2,-1.1333333 0,-0.6333333 0.5333334,-1.1333333 1.2,-1.1333333 0.6666667,0 1.2,0.5 1.2,1.1333333 -0.033333,0.6333333 -0.5666666,1.1333333 -1.2,1.1333333 z M 18.666667,18.666667 H 16.3 v -4.6 c 0,-0.966667 -0.03333,-1.6 -0.133333,-1.9 -0.1,-0.3 -0.266667,-0.5 -0.466667,-0.666667 -0.233333,-0.166667 -0.5,-0.233333 -0.8,-0.233333 -0.4,0 -0.766667,0.1 -1.066667,0.333333 C 13.5,11.833333 13.3,12.133333 13.166667,12.5 13.033333,12.866667 13,13.566667 13,14.566667 v 4.1 H 10.133333 V 9.4666667 H 12.5 V 10.833333 C 13.3,9.8 14.333333,9.2666667 15.566667,9.2666667 c 0.533333,0 1.033333,0.1 1.5,0.3 C 17.5,9.7666667 17.866667,10 18.1,10.3 c 0.233333,0.3 0.4,0.633333 0.466667,1.033333 C 18.666667,11.7 18.7,12.266667 18.7,12.966667 v 5.7 z"
       id="path1"
       style="display:inline;fill:#ffffff;fill-opacity:1;stroke-width:0.333333" /></g><g
     id="Layer_10"
     transform="translate(-2,-2)"
     style="display:none" /><g
     id="Layer_11"
     transform="translate(-2,-2)"
     style="display:none" /><g
     id="Layer_12"
     transform="translate(-2,-2)"
     style="display:none" /><g
     id="Layer_13"
     transform="translate(-2,-2)"
     style="display:none" /><g
     id="Layer_14"
     transform="translate(-2,-2)"
     style="display:none" /><g
     id="Layer_15"
     transform="translate(-2,-2)"
     style="display:none" /><g
     id="Layer_16"
     transform="translate(-2,-2)"
     style="display:none" /><g
     id="Layer_17"
     transform="translate(-2,-2)"
     style="display:none" /><g
     id="layer1"
     inkscape:label="Layer 1" /></svg>
