<?xml version="1.0" encoding="UTF-8" standalone="no"?>
<svg
   id="Capa_1"
   version="1.1"
   viewBox="0 0 20 20"
   xml:space="preserve"
   sodipodi:docname="pinterest_icon-icons.com_66097.svg"
   width="20"
   height="20"
   inkscape:version="1.3 (0e150ed6c4, 2023-07-21)"
   xmlns:inkscape="http://www.inkscape.org/namespaces/inkscape"
   xmlns:sodipodi="http://sodipodi.sourceforge.net/DTD/sodipodi-0.dtd"
   xmlns="http://www.w3.org/2000/svg"
   xmlns:svg="http://www.w3.org/2000/svg"><defs
     id="defs17" /><sodipodi:namedview
     id="namedview17"
     pagecolor="#505050"
     bordercolor="#eeeeee"
     borderopacity="1"
     inkscape:showpageshadow="0"
     inkscape:pageopacity="0"
     inkscape:pagecheckerboard="0"
     inkscape:deskcolor="#505050"
     inkscape:zoom="7.0767751"
     inkscape:cx="56.028345"
     inkscape:cy="56.098999"
     inkscape:window-width="1920"
     inkscape:window-height="1003"
     inkscape:window-x="0"
     inkscape:window-y="0"
     inkscape:window-maximized="1"
     inkscape:current-layer="Capa_1" /><g
     id="g2"
     style="display:inline"
     transform="matrix(0.17825948,0,0,0.17825948,-1.7816156e-4,-3.5632312e-4)"><circle
       cx="56.098999"
       cy="56.099998"
       r="56.098"
       style="fill:#cb2027"
       id="circle1" /><g
       id="g1"><path
         d="m 60.627,75.122 c -4.241,-0.328 -6.023,-2.431 -9.349,-4.45 -1.828,9.591 -4.062,18.785 -10.679,23.588 -2.045,-14.496 2.998,-25.384 5.34,-36.941 -3.992,-6.72 0.48,-20.246 8.9,-16.913 10.363,4.098 -8.972,24.987 4.008,27.596 13.551,2.724 19.083,-23.513 10.679,-32.047 -12.142,-12.321 -35.343,-0.28 -32.49,17.358 0.695,4.312 5.151,5.621 1.78,11.571 -7.771,-1.721 -10.089,-7.85 -9.791,-16.021 0.481,-13.375 12.018,-22.74 23.59,-24.036 14.635,-1.638 28.371,5.374 30.267,19.14 2.133,15.537 -6.607,32.363 -22.255,31.155 z"
         style="fill:#f1f2f2"
         id="path1" /></g></g><g
     id="g3"
     transform="translate(-9.9945069e-4,-0.0019989)" /><g
     id="g4"
     transform="translate(-9.9945069e-4,-0.0019989)" /><g
     id="g5"
     transform="translate(-9.9945069e-4,-0.0019989)" /><g
     id="g6"
     transform="translate(-9.9945069e-4,-0.0019989)" /><g
     id="g7"
     transform="translate(-9.9945069e-4,-0.0019989)" /><g
     id="g8"
     transform="translate(-9.9945069e-4,-0.0019989)" /><g
     id="g9"
     transform="translate(-9.9945069e-4,-0.0019989)" /><g
     id="g10"
     transform="translate(-9.9945069e-4,-0.0019989)" /><g
     id="g11"
     transform="translate(-9.9945069e-4,-0.0019989)" /><g
     id="g12"
     transform="translate(-9.9945069e-4,-0.0019989)" /><g
     id="g13"
     transform="translate(-9.9945069e-4,-0.0019989)" /><g
     id="g14"
     transform="translate(-9.9945069e-4,-0.0019989)" /><g
     id="g15"
     transform="translate(-9.9945069e-4,-0.0019989)" /><g
     id="g16"
     style="display:inline"
     transform="translate(-9.9945069e-4,-0.0019989)" /><g
     id="g17"
     style="display:inline"
     transform="translate(-9.9945069e-4,-0.0019989)" /></svg>
